<?xml version="1.0" standalone="no"?>
<!DOCTYPE svg PUBLIC "-//W3C//DTD SVG 20010904//EN"
 "http://www.w3.org/TR/2001/REC-SVG-20010904/DTD/svg10.dtd">
<svg version="1.0" xmlns="http://www.w3.org/2000/svg"
 width="198.000000pt" height="198.000000pt" viewBox="0 0 198.000000 198.000000"
 preserveAspectRatio="xMidYMid meet">
<metadata>
Created by potrace 1.14, written by Peter Selinger 2001-2017
</metadata>
<g transform="translate(0.000000,198.000000) scale(0.100000,-0.100000)"
fill="#000000" stroke="none">
<path d="M889 1820 c-332 -41 -608 -239 -753 -541 -68 -140 -89 -235 -90 -404
-1 -77 2 -148 6 -157 7 -17 61 -18 943 -18 882 0 936 1 943 18 4 9 7 80 6 157
0 109 -5 159 -22 225 -27 104 -103 264 -166 347 -198 261 -548 412 -867 373z
m151 -41 c0 -15 62 -161 66 -156 2 2 -9 37 -26 77 -16 40 -30 77 -30 83 0 13
97 0 188 -26 l76 -22 12 -45 c7 -25 35 -123 63 -219 45 -151 50 -176 36 -183
-9 -5 -15 -23 -15 -42 0 -32 -2 -35 -50 -46 -27 -6 -53 -9 -58 -6 -6 3 -12 0
-15 -8 -3 -8 1 -17 8 -20 12 -4 55 -75 55 -91 0 -14 -50 24 -127 98 -82 79
-144 163 -257 351 -28 46 -46 86 -43 97 3 12 -2 20 -14 24 -15 5 -79 109 -79
129 0 7 55 13 138 14 45 1 72 -2 72 -9z m-195 -59 c14 -27 25 -52 25 -55 0 -3
-18 4 -40 15 -50 26 -104 26 -146 0 l-32 -21 -16 23 c-9 12 -12 26 -7 31 10
10 150 56 173 57 11 0 27 -18 43 -50z m597 -47 c165 -86 324 -263 399 -444 48
-117 77 -263 70 -355 -1 -12 -127 -68 -179 -79 -32 -7 -34 -6 -27 15 5 16 0
29 -20 50 -14 15 -27 37 -28 48 0 11 -11 25 -24 31 -25 11 -24 8 -26 168 -1
71 -1 72 -29 78 -15 4 -30 11 -33 15 -3 5 -16 5 -31 0 -14 -6 -23 -6 -20 -1 4
5 2 11 -3 13 -6 1 -13 19 -16 38 -3 19 -10 39 -16 46 -5 6 -27 70 -48 140 -55
184 -61 205 -50 199 13 -9 11 11 -3 27 -14 14 -23 58 -13 58 4 0 47 -21 97
-47z m-824 15 c17 -17 15 -38 -4 -38 -11 0 -15 -6 -11 -20 7 -27 -5 -25 -31 5
-28 32 -28 39 1 53 29 14 31 14 45 0z m102 -28 c0 -5 -2 -10 -4 -10 -3 0 -8 5
-11 10 -3 6 -1 10 4 10 6 0 11 -4 11 -10z m110 6 c0 -3 -4 -8 -10 -11 -5 -3
-10 -1 -10 4 0 6 5 11 10 11 6 0 10 -2 10 -4z m-281 -20 c9 -11 8 -15 -4 -20
-9 -3 -13 -2 -10 4 3 6 2 10 -4 10 -5 0 -13 -5 -16 -10 -8 -12 42 -33 58 -23
7 3 9 3 5 -2 -4 -4 0 -13 9 -20 31 -23 4 -35 -80 -34 -45 0 -90 4 -100 8 -16
6 -13 11 22 39 22 18 49 32 61 32 11 0 23 7 26 15 8 19 18 19 33 1z m127 -41
c9 -14 19 -23 22 -20 3 3 -3 14 -14 26 -19 21 -19 21 6 18 27 -4 40 -37 20
-49 -18 -11 -84 14 -88 33 -5 27 35 20 54 -8z m222 -12 c-3 -37 -4 -38 -45
-41 l-43 -3 0 40 0 41 46 0 45 0 -3 -37z m-120 -21 c2 -7 -6 -12 -17 -12 -21
0 -27 11 -14 24 9 9 26 2 31 -12z m176 -44 c22 -39 24 -48 11 -48 -15 0 -29
25 -41 78 -8 33 -5 30 30 -30z m-269 28 l30 -13 -24 -12 c-21 -12 -26 -10 -50
13 -23 24 -24 26 -6 26 11 -1 34 -7 50 -14z m-76 -34 c13 -16 13 -16 8 1 -8
20 8 23 16 3 4 -10 -2 -17 -16 -21 -69 -20 -76 -25 -70 -61 6 -39 -2 -42 -48
-18 -17 8 -37 13 -45 10 -8 -3 -13 -2 -10 3 3 5 -18 21 -47 36 -65 34 -63 32
-44 52 13 16 31 18 129 15 91 -3 116 -7 127 -20z m316 -1 c3 -7 3 -16 0 -19
-2 -3 -8 3 -12 13 -5 16 -7 16 -12 3 -5 -13 -11 -13 -46 3 l-40 18 52 -2 c35
-1 54 -6 58 -16z m-100 -11 c3 -5 1 -10 -4 -10 -6 0 -11 5 -11 10 0 6 2 10 4
10 3 0 8 -4 11 -10z m-115 -10 c0 -5 -2 -10 -4 -10 -3 0 -8 5 -11 10 -3 6 -1
10 4 10 6 0 11 -4 11 -10z m65 0 c3 -5 1 -10 -4 -10 -6 0 -11 5 -11 10 0 6 2
10 4 10 3 0 8 -4 11 -10z m-349 -58 c-5 -4 -106 46 -106 53 0 3 25 -7 55 -22
30 -15 53 -29 51 -31z m-25 -3 c45 -22 88 -38 96 -35 8 3 11 1 8 -4 -3 -6 0
-10 7 -11 24 -2 -56 -19 -137 -29 -75 -9 -80 -8 -104 13 -13 12 -21 16 -16 8
5 -9 4 -12 -3 -7 -6 4 -8 14 -5 24 10 25 54 82 64 82 5 0 46 -18 90 -41z m246
14 c8 -10 12 -13 9 -7 -9 19 22 25 39 8 18 -18 18 -24 5 -60 -9 -23 -14 -26
-45 -21 -56 9 -88 29 -90 57 -2 14 -1 28 2 33 8 14 66 7 80 -10z m303 -18 c0
-23 -8 -43 -22 -57 -20 -20 -20 -21 -1 -16 17 5 25 -7 57 -85 20 -49 35 -91
33 -94 -10 -9 -97 106 -91 121 4 10 -2 17 -20 22 -25 6 -37 24 -15 24 5 0 8 4
4 10 -3 5 -12 7 -19 4 -23 -9 -79 79 -62 97 3 3 34 6 70 7 l66 2 0 -35z m85
-41 c68 -108 153 -211 224 -269 60 -49 80 -76 41 -55 -15 8 -26 7 -47 -7 -22
-15 -24 -19 -10 -21 13 -3 16 -9 11 -25 -4 -12 -7 -27 -7 -33 0 -6 -9 -9 -20
-6 -11 3 -25 -1 -31 -10 -16 -22 -51 -38 -83 -38 -25 0 -34 9 -65 63 -20 34
-44 78 -53 97 l-18 35 24 -20 c13 -11 35 -30 49 -42 13 -13 28 -23 32 -23 4 0
19 -23 35 -51 15 -28 29 -46 31 -40 2 6 8 9 13 6 5 -4 6 1 3 10 -5 11 -2 14
12 8 16 -6 16 -5 -2 19 -21 28 -38 18 -28 -17 l6 -20 -16 20 c-18 24 -21 39
-4 29 8 -5 9 -2 5 9 -7 18 8 33 18 17 4 -6 11 -8 16 -5 5 3 6 0 3 -8 -3 -8 2
-20 11 -27 18 -15 20 0 3 19 -11 11 -10 13 5 7 47 -17 49 -16 7 9 -25 15 -50
28 -56 28 -6 0 -11 5 -10 11 1 20 -95 201 -105 198 -6 -1 -8 6 -4 19 5 16 4
19 -5 14 -8 -5 -11 -4 -7 2 4 6 -4 36 -18 67 -25 57 -31 87 -18 99 10 10 7 13
58 -69z m-252 18 c-6 -23 -24 -25 -31 -4 -2 7 3 12 12 12 9 0 16 5 16 12 0 6
2 9 5 7 2 -3 2 -15 -2 -27z m51 -29 c19 -23 19 -23 -2 -23 -17 0 -22 6 -22 27
0 14 1 24 3 22 1 -2 11 -14 21 -26z m-586 -31 c2 -7 -6 -12 -17 -12 -21 0 -27
11 -14 24 9 9 26 2 31 -12z m322 -22 c23 -45 26 -83 8 -98 -7 -5 -30 -15 -51
-20 -54 -15 -91 0 -161 67 -32 31 -55 50 -51 42 6 -10 4 -12 -4 -6 -23 14 3
23 99 35 52 6 96 13 99 15 16 16 43 0 61 -35z m19 18 l11 -23 -6 22 c-4 18 -2
22 10 18 53 -17 52 -16 36 -24 -41 -22 -57 -21 -68 4 -14 31 1 33 17 3z m-285
-43 c34 -34 54 -46 41 -25 -12 19 2 10 26 -17 19 -22 20 -24 3 -10 -17 14 -23
15 -27 5 -3 -10 -15 -7 -51 11 -25 13 -46 27 -46 31 0 4 -7 11 -16 14 -14 5
-15 4 -4 -9 15 -18 -1 -20 -18 -3 -13 13 -17 32 -4 25 4 -3 16 -1 27 4 31 12
32 11 69 -26z m476 25 c0 -5 -7 -10 -15 -10 -8 0 -15 5 -15 10 0 6 7 10 15 10
8 0 15 -4 15 -10z m-82 -30 c3 0 -9 -94 -12 -98 -3 -3 -66 97 -66 104 0 3 17
3 38 0 20 -3 38 -5 40 -6z m200 -3 c6 -7 9 -22 7 -32 -2 -11 -4 -23 -4 -28 -1
-9 -69 -42 -75 -36 -2 2 -7 27 -11 54 l-7 50 43 -40 43 -40 -27 37 c-15 20
-27 38 -27 40 0 10 49 6 58 -5z m-657 -33 c26 -27 24 -28 -36 -13 -38 10 -43
14 -35 29 12 23 41 16 71 -16z m412 -32 l26 -48 -32 -1 c-34 0 -54 17 -35 28
9 6 8 11 -1 22 -9 12 -9 16 0 19 9 3 9 10 -1 28 -12 22 -11 23 2 13 8 -7 26
-34 41 -61z m416 -84 c1 7 -6 27 -15 43 -8 17 -14 33 -12 35 2 2 21 -30 41
-71 20 -41 35 -75 32 -75 -2 0 -11 13 -20 30 -8 16 -21 29 -27 27 -6 -1 -17 8
-23 20 -7 13 -15 20 -18 17 -3 -4 7 -30 24 -58 16 -29 29 -57 29 -61 0 -5 -27
17 -60 50 -54 54 -109 140 -96 152 4 5 61 -54 78 -81 5 -8 10 -8 19 1 8 8 6
23 -10 58 -35 79 -22 65 19 -20 21 -44 39 -74 39 -67z m-784 102 c10 -11 16
-20 13 -20 -3 0 -13 9 -23 20 -10 11 -16 20 -13 20 3 0 13 -9 23 -20z m476 -2
c0 -10 2 -10 6 0 2 6 9 9 15 6 5 -3 0 -13 -12 -21 -17 -12 -24 -12 -36 -2 -12
10 -12 14 -2 20 19 12 28 11 29 -3z m-527 -14 c33 -9 66 -20 72 -25 6 -5 13
-7 16 -4 2 3 5 -2 5 -11 0 -13 -13 -15 -78 -13 -43 2 -75 7 -73 11 3 5 -2 11
-10 14 -18 7 -22 44 -5 44 6 0 39 -7 73 -16z m119 4 c-2 -5 2 -8 9 -8 8 0 23
-6 33 -14 18 -13 18 -14 -1 -24 -17 -9 -25 -5 -51 21 -30 31 -30 32 -8 32 13
0 21 -3 18 -7z m240 -43 c4 -8 2 -17 -3 -20 -6 -4 -10 -1 -10 4 0 6 -8 11 -17
11 -15 0 -16 2 -3 10 21 13 27 12 33 -5z m361 -95 c28 -55 51 -98 53 -96 3 2
-14 41 -37 86 -23 45 -36 79 -30 75 6 -4 33 -52 61 -108 27 -56 41 -91 30 -77
-11 14 -21 22 -22 18 -5 -28 -3 -35 15 -49 19 -16 18 -17 -22 -21 -40 -3 -46
1 -43 29 1 7 -12 19 -29 28 -22 11 -30 23 -30 42 0 27 0 27 43 -15 45 -44 56
-50 53 -29 -2 18 -77 98 -86 92 -4 -3 -14 3 -21 13 -13 16 -13 16 5 2 18 -13
19 -13 11 0 -4 8 -21 31 -37 51 -33 43 -34 46 -10 52 42 11 48 6 96 -93z
m-472 43 c24 -21 75 -58 113 -82 39 -25 72 -46 74 -47 1 -2 -1 -15 -6 -29 l-8
-26 -60 40 c-104 69 -209 163 -193 172 23 15 35 10 80 -28z m374 0 c15 -20 22
-33 15 -28 -10 5 -11 2 -7 -13 5 -13 1 -22 -10 -26 -9 -4 -18 -5 -20 -4 -3 4
-11 108 -8 108 1 0 14 -17 30 -37z m-599 -76 c61 -47 135 -102 165 -123 32
-22 43 -34 28 -29 -25 7 -342 144 -349 150 -2 2 2 27 9 55 9 35 16 48 24 42 6
-5 61 -48 123 -95z m36 40 c126 -71 203 -108 262 -126 77 -24 105 -43 105 -73
0 -27 -1 -28 -58 -28 -53 0 -64 4 -128 48 -75 51 -304 231 -304 238 0 9 15 2
123 -59z m72 47 c14 -9 25 -13 25 -9 0 5 9 0 20 -10 11 -10 17 -21 15 -25 -3
-4 20 -27 50 -50 57 -44 68 -57 38 -46 -26 10 -273 147 -273 152 0 12 104 2
125 -12z m217 10 c29 -5 43 -15 59 -41 12 -19 24 -32 26 -29 3 3 -4 17 -16 32
-12 15 -19 29 -16 32 3 3 12 -3 20 -14 13 -16 14 -16 9 -1 -3 9 -1 17 4 17 6
0 9 -16 7 -37 -1 -21 -3 -48 -4 -60 -1 -13 -5 -23 -10 -23 -5 0 -45 27 -89 59
-44 33 -84 56 -88 53 -4 -4 -4 -1 0 6 8 13 40 15 98 6z m208 -2 c0 -5 -9 -17
-20 -27 -19 -17 -22 -17 -36 -3 -9 9 -13 21 -10 27 8 13 66 15 66 3z m620 -31
c0 -37 -11 -51 -41 -51 -8 0 -49 71 -49 85 0 3 20 5 45 5 l45 0 0 -39z m180
22 c0 -13 -3 -13 -15 -3 -19 16 -19 12 4 -36 11 -21 16 -42 13 -46 -16 -16
-51 6 -67 43 -10 22 -20 37 -22 35 -3 -2 3 -18 12 -36 16 -31 16 -32 -7 -28
-19 2 -24 10 -26 44 l-3 41 56 1 c43 0 55 -3 55 -15z m-136 -44 c-3 -5 -10 -7
-15 -3 -5 3 -7 10 -3 15 3 5 10 7 15 3 5 -3 7 -10 3 -15z m-354 -44 c11 -21
18 -41 16 -43 -3 -2 -17 20 -31 50 -15 29 -22 48 -16 42 6 -5 20 -28 31 -49z
m-300 15 c0 -5 -2 -10 -4 -10 -3 0 -8 5 -11 10 -3 6 -1 10 4 10 6 0 11 -4 11
-10z m-28 -28 c8 -6 19 -8 23 -4 5 4 5 1 1 -6 -6 -11 -11 -11 -23 0 -14 11
-15 10 -9 -8 9 -30 -17 -38 -40 -13 -10 11 -12 19 -6 19 7 0 12 6 12 14 0 16
22 15 42 -2z m78 -27 c0 -33 -15 -33 -16 0 -1 14 2 25 7 25 5 0 9 -11 9 -25z
m710 -49 c-4 -19 -5 -38 -1 -42 3 -4 -1 -3 -9 1 -8 5 -26 8 -41 7 -22 -2 -27
3 -30 25 -7 52 0 72 29 75 40 6 62 -23 52 -66z m27 59 c9 -25 -4 -29 -17 -6
-7 15 -7 21 0 21 6 0 13 -7 17 -15z m-1454 -7 c12 -6 89 -40 171 -74 128 -54
146 -64 123 -69 -29 -8 -35 -20 -14 -28 8 -4 7 -6 -3 -6 -9 -1 -74 22 -145 50
-72 28 -143 55 -158 61 -23 8 -27 15 -23 32 3 11 6 27 6 34 0 15 15 15 43 0z
m1228 -33 c18 -25 34 -43 37 -40 2 2 -10 22 -28 45 -27 34 -29 40 -13 40 11 0
25 -6 32 -12 11 -10 13 -10 7 0 -4 6 -3 12 2 12 5 0 8 -21 8 -47 -1 -37 -5
-48 -18 -51 -10 -2 -18 3 -18 10 0 7 -13 19 -30 26 -21 10 -30 21 -30 38 0 36
15 29 51 -21z m-647 0 c3 -8 1 -15 -4 -15 -6 0 -10 7 -10 15 0 8 2 15 4 15 2
0 6 -7 10 -15z m740 -10 c-4 -8 -10 -13 -15 -10 -4 3 -6 12 -3 20 4 8 10 13
15 10 4 -3 6 -12 3 -20z m-1274 -73 c41 -17 103 -41 138 -53 63 -22 78 -43 50
-67 -13 -10 -19 -12 -38 -12 -5 0 -10 -9 -10 -20 0 -19 -7 -20 -120 -20 l-120
0 -1 45 c-4 131 -1 168 14 162 6 -2 46 -18 87 -35z m580 23 c-13 -16 -40 -20
-40 -7 0 14 12 22 33 22 16 0 17 -3 7 -15z m480 -15 c-8 -6 -22 -10 -30 -9 -9
0 -5 6 10 14 27 14 44 10 20 -5z m-451 -11 c-15 -9 -32 -2 -24 11 3 5 13 6 21
3 12 -4 13 -8 3 -14z m577 -7 c-4 -3 -14 2 -24 12 -16 18 -16 18 6 6 13 -6 21
-14 18 -18z m28 22 c11 -4 16 -18 15 -43 -1 -20 -3 -28 -6 -17 -3 11 -11 26
-19 34 -13 13 -19 32 -10 32 2 0 11 -3 20 -6z m116 -14 c0 -23 -25 -27 -33 -6
-4 9 1 17 11 19 9 3 18 5 20 6 1 0 2 -8 2 -19z m-442 -15 c9 -19 7 -26 -7 -39
-24 -22 -71 -6 -71 24 0 12 -7 20 -17 20 -36 0 9 18 47 18 30 1 40 -4 48 -23z
m67 11 c-15 -11 -23 -12 -34 -3 -12 10 -14 9 -8 -5 8 -23 0 -23 -12 0 -9 16
-5 18 32 21 39 2 41 1 22 -13z m30 -19 c-16 -12 -31 -20 -34 -19 -2 2 -8 -2
-12 -10 -5 -8 -9 -9 -9 -2 0 13 50 50 63 46 4 -1 7 3 7 10 0 6 3 8 7 4 5 -4
-5 -17 -22 -29z m395 11 c0 -17 -3 -20 -9 -9 -7 11 -10 10 -13 -5 -5 -18 -5
-18 -13 0 -5 12 -3 21 6 27 22 14 29 11 29 -13z m90 0 c0 -6 -7 -8 -15 -4 -8
3 -15 0 -15 -6 0 -6 -3 -9 -6 -5 -4 3 -4 13 -1 21 7 17 37 11 37 -6z m-1087
-40 c26 -12 47 -24 47 -28 0 -4 -11 -12 -25 -18 -30 -14 -85 -5 -85 14 0 7
-10 16 -21 19 -17 6 -19 9 -8 16 12 8 12 11 -1 19 -24 17 38 2 93 -22z m247
12 c0 -5 -5 -10 -11 -10 -5 0 -7 5 -4 10 3 6 8 10 11 10 2 0 4 -4 4 -10z m390
0 c0 -5 -5 -10 -11 -10 -5 0 -7 5 -4 10 3 6 8 10 11 10 2 0 4 -4 4 -10z m150
1 c0 -5 -6 -14 -14 -20 -11 -9 -15 -7 -19 9 -4 15 0 20 14 20 10 0 19 -4 19
-9z m170 0 c0 -5 -9 -11 -20 -14 -13 -3 -20 0 -20 9 0 8 9 14 20 14 11 0 20
-4 20 -9z m-870 -10 c0 -19 -20 -22 -47 -7 l-28 15 38 1 c20 0 37 -4 37 -9z
m280 5 c0 -3 -4 -8 -10 -11 -5 -3 -10 -1 -10 4 0 6 5 11 10 11 6 0 10 -2 10
-4z m77 -41 c-2 -5 -10 -11 -18 -12 -19 -3 -53 23 -45 35 8 13 67 -9 63 -23z
m93 25 c0 -5 -5 -10 -11 -10 -5 0 -7 5 -4 10 3 6 8 10 11 10 2 0 4 -4 4 -10z
m125 -10 c-10 -11 -24 -20 -31 -20 -6 0 -22 -11 -35 -25 -27 -27 -52 -33 -43
-10 4 8 12 15 19 15 8 0 20 6 27 14 12 12 67 45 77 46 2 0 -4 -9 -14 -20z
m172 -11 c12 -12 6 -49 -8 -49 -5 0 -9 9 -9 20 0 11 -7 20 -15 20 -8 0 -15 5
-15 10 0 13 33 13 47 -1z m124 2 c-7 -5 -17 -15 -22 -22 -6 -10 -9 -8 -9 9 0
16 6 22 23 22 16 0 18 -3 8 -9z m392 -11 c-6 -22 -18 -27 -93 -34 l-55 -6 60
29 c73 36 95 39 88 11z m-823 5 c0 -10 -65 -45 -82 -45 -28 0 -21 15 15 33 31
15 67 22 67 12z m-675 -15 c-3 -5 -10 -10 -16 -10 -5 0 -9 5 -9 10 0 6 7 10
16 10 8 0 12 -4 9 -10z m230 0 c-3 -5 -16 -10 -28 -10 -18 0 -19 2 -7 10 20
13 43 13 35 0z m895 -10 c0 -5 -8 -10 -17 -10 -15 0 -16 2 -3 10 19 12 20 12
20 0z m-90 -10 c0 -5 -2 -10 -4 -10 -3 0 -8 5 -11 10 -3 6 -1 10 4 10 6 0 11
-4 11 -10z m448 -17 c-10 -2 -28 -2 -40 0 -13 2 -5 4 17 4 22 1 32 -1 23 -4z
m-931 -19 c-3 -3 -12 -4 -19 -1 -8 3 -5 6 6 6 11 1 17 -2 13 -5z m423 -4 c-20
-13 -43 -13 -35 0 3 6 16 10 28 10 18 0 19 -2 7 -10z m520 0 c0 -6 -37 -10
-91 -10 -57 0 -88 4 -84 10 3 6 44 10 91 10 49 0 84 -4 84 -10z m-453 -6 c-3
-3 -12 -4 -19 -1 -8 3 -5 6 6 6 11 1 17 -2 13 -5z"/>
<path d="M1110 1608 c0 -23 150 -361 157 -354 2 2 0 12 -6 23 -6 10 -41 88
-77 173 -60 143 -74 172 -74 158z"/>
<path d="M1276 1227 c3 -10 9 -15 12 -12 3 3 0 11 -7 18 -10 9 -11 8 -5 -6z"/>
<path d="M1370 1615 c0 -5 5 -17 10 -25 5 -8 10 -10 10 -5 0 6 -5 17 -10 25
-5 8 -10 11 -10 5z"/>
<path d="M1391 1560 c0 -14 28 -72 29 -59 0 4 -7 22 -15 40 -8 19 -14 27 -14
19z"/>
<path d="M1426 1470 c3 -14 11 -32 16 -40 6 -10 7 -7 2 10 -3 14 -11 32 -16
40 -6 10 -7 7 -2 -10z"/>
<path d="M1450 1405 c0 -5 5 -17 10 -25 5 -8 10 -10 10 -5 0 6 -5 17 -10 25
-5 8 -10 11 -10 5z"/>
<path d="M1470 1355 c0 -5 5 -17 10 -25 5 -8 10 -10 10 -5 0 6 -5 17 -10 25
-5 8 -10 11 -10 5z"/>
<path d="M1500 1275 c0 -5 5 -17 10 -25 5 -8 10 -10 10 -5 0 6 -5 17 -10 25
-5 8 -10 11 -10 5z"/>
<path d="M670 1454 c0 -6 7 -19 16 -30 14 -18 14 -18 3 6 -14 31 -19 36 -19
24z"/>
<path d="M635 1223 c8 -18 18 -33 20 -33 10 0 4 16 -16 40 l-20 25 16 -32z"/>
<path d="M368 1203 c7 -3 16 -2 19 1 4 3 -2 6 -13 5 -11 0 -14 -3 -6 -6z"/>
<path d="M830 1146 c0 -2 8 -10 18 -17 15 -13 16 -12 3 4 -13 16 -21 21 -21
13z"/>
<path d="M390 1136 c0 -2 8 -10 18 -17 15 -13 16 -12 3 4 -13 16 -21 21 -21
13z"/>
<path d="M730 1031 c0 -5 5 -13 10 -16 6 -3 10 -2 10 4 0 5 -4 13 -10 16 -5 3
-10 2 -10 -4z"/>
<path d="M72 549 c-15 -6 -17 -27 -17 -202 0 -108 3 -199 7 -202 8 -8 253 -9
266 -1 5 3 6 22 3 43 l-6 38 -83 3 -82 3 0 33 c0 40 9 45 79 42 61 -2 74 9 69
56 l-3 33 -72 3 -73 3 0 29 c0 22 5 30 18 31 9 1 42 2 72 4 30 1 61 3 68 3 7
1 12 17 12 42 l0 40 -52 1 c-29 0 -84 1 -121 2 -38 1 -76 -1 -85 -4z"/>
<path d="M1254 548 c-38 -10 -81 -55 -95 -97 -17 -50 -14 -193 4 -228 30 -57
77 -85 147 -88 95 -4 160 47 178 139 12 60 9 129 -8 181 -14 43 -72 95 -108
96 -76 4 -93 4 -118 -3z m114 -102 c21 -21 29 -135 12 -176 -14 -35 -63 -54
-93 -36 -23 14 -40 79 -33 130 3 23 5 47 5 54 2 43 75 62 109 28z"/>
<path d="M446 538 c-7 -20 -16 -145 -16 -215 0 -58 -2 -64 -35 -96 -35 -34
-48 -86 -22 -88 68 -7 106 9 130 54 21 40 25 70 26 180 l1 88 32 -3 32 -3 1
-155 0 -155 50 0 50 0 0 200 0 200 -123 3 c-93 2 -123 0 -126 -10z"/>
<path d="M772 348 l3 -203 43 -6 c25 -3 46 -1 51 5 5 6 8 40 7 74 -2 72 10 98
41 88 19 -6 53 -73 53 -103 0 -7 5 -24 12 -38 10 -22 17 -25 59 -25 26 0 50 3
52 8 6 10 -39 149 -58 178 -14 21 -14 27 -1 47 15 23 56 142 56 165 0 8 -16
12 -49 12 -53 0 -47 6 -83 -92 -16 -47 -27 -58 -54 -58 -26 0 -26 1 -25 70 0
75 -4 80 -60 80 l-49 0 2 -202z"/>
<path d="M1564 537 c-2 -7 -3 -98 -2 -202 l3 -190 48 -3 c53 -3 50 -11 48 106
-1 34 2 62 6 62 5 -1 19 -24 33 -53 23 -48 28 -52 60 -52 32 0 37 4 60 52 14
29 28 52 31 53 4 0 6 -37 5 -82 l-1 -83 50 0 50 0 0 200 0 200 -42 3 -43 3
-52 -105 c-28 -58 -54 -106 -57 -106 -3 0 -28 48 -55 105 l-50 105 -43 0 c-26
0 -46 -5 -49 -13z"/>
</g>
</svg>
